# xmcd
#
# Track frame offsets:
#	183
#	13478
#	22465
#	34168
#	52460
#	66723
#	79340
#	93403
#	106660
#	116770
#	130845
#	146378
#	157785
#	171428
#	186910
#	198218
#	208800
#	223675
#	232873
#	249440
#	262398
#	273635
#
# Disc length: 3811 seconds
#
# Revision: 0
# Processed by: cddbd v1.4PL0 Copyright (c) Steve Scherf et al.
# Submitted via: dBpowerAMP V4.0
#
DISCID=5c0ee116
DTITLE=Various Artist - Blues Upside Your Head
DYEAR=1900
DGENRE=Blues
TTITLE0=Jimmy Reed - I'm Going' Upside Your Head
TTITLE1=Eddie Taylor - I'm Gonna Love You
TTITLE2=Bobby Bland - Two Steps From The Blues
TTITLE3=John Lee Hooker - House Rent Boogie
TTITLE4=Elmore James - Strange Angels
TTITLE5=Johny 'Guitar' Watson - Those Lonely, Lonley Feelings
TTITLE6=Freddy King - Have You Ever Loved A Woman
TTITLE7=The Carter Brothers - Southern Country Boy
TTITLE8=Billy Boy Arnold - I Ain't Got You
TTITLE9=Memphis Slim - Messin' Around
TTITLE10=Bobby Bland - Reconsider Baby
TTITLE11=Eddie Taylor - Stroll Out West
TTITLE12=Johny 'Guitar' Watson - Gangster Of Love
TTITLE13=The Carter Brothers  - Booze In The Bottle
TTITLE14=Frank Frost and The Night Hawks - Jelly Roll King
TTITLE15=Billy Boy Arnold - I Wish You Would
TTITLE16=Freddy King - You've Got To Love Her With A Feeling
TTITLE17=Memphis Slim - Steppin Out
TTITLE18=John Lee Hooker - Mama, You Got a Daughter
TTITLE19=George 'Wild Child' Butler - Put it All In There
TTITLE20=Elmore James - Look On Yonder Wall
TTITLE21=Jimmy Reed - (Don't Say Nothin') When You're Doing Alright
EXTD=
EXTT0=
EXTT1=
EXTT2=
EXTT3=
EXTT4=
EXTT5=
EXTT6=
EXTT7=
EXTT8=
EXTT9=
EXTT10=
EXTT11=
EXTT12=
EXTT13=
EXTT14=
EXTT15=
EXTT16=
EXTT17=
EXTT18=
EXTT19=
EXTT20=
EXTT21=
PLAYORDER=
